<svg width="30" height="34" viewBox="0 0 30 34" fill="none" xmlns="http://www.w3.org/2000/svg">
<path d="M0.711541 1.06438C0.349871 1.21714 0 1.70849 0 2.06873C0 2.46146 5.54659 32.8339 5.67108 33.14C5.73893 33.3036 5.95369 33.5436 6.14544 33.653C6.4841 33.8497 6.87999 33.8605 14.9117 33.8605C22.9433 33.8605 23.3386 33.8497 23.6779 33.653C23.8702 33.5436 24.0844 33.3036 24.1523 33.14C24.288 32.8128 29.8233 2.49452 29.8233 2.06873C29.8233 1.62128 29.4168 1.14133 28.9082 0.999405L28.4339 0.857475L26.2426 1.9382L24.0514 3.01891L21.8247 1.95928C20.6046 1.3699 19.5202 0.889966 19.4299 0.900796C19.3396 0.900796 18.2776 1.38073 17.0917 1.95928L14.9117 3.02861L12.7428 1.95928C11.5457 1.3699 10.4837 0.889964 10.3934 0.889964C10.3032 0.889964 9.21875 1.3699 7.99863 1.95928L5.77315 3.01778L3.62673 1.95928C2.44083 1.38073 1.39004 0.900796 1.27676 0.900796C1.16348 0.911626 0.914501 0.977174 0.711541 1.06438ZM10.9575 16.0708C11.3982 22.7062 11.8047 28.8177 11.8614 29.6584C11.918 30.4986 11.9746 31.2516 11.9746 31.3171C11.9746 31.426 11.636 31.4591 10.6306 31.4591H9.2866L9.21875 31.1536C9.10547 30.5967 5.96549 5.69222 5.99912 5.65916C6.02154 5.6375 6.95905 5.17922 8.07769 4.63316C9.69311 3.85853 10.1108 3.69437 10.1338 3.8363C10.1551 3.93491 10.5168 9.43541 10.9575 16.0708ZM23.8354 5.81192C23.8354 6.03023 20.6836 30.9022 20.6158 31.2077C20.5591 31.4477 20.5143 31.4585 19.1927 31.4585H17.8257L17.9047 30.6725C17.995 29.5809 19.6559 4.32707 19.6559 3.94517V3.62881L21.7456 4.63316C23.0672 5.27726 23.8354 5.70305 23.8354 5.81192Z" fill="#76E1EF"/>
</svg>
