<?xml version="1.0" encoding="utf-8"?>
<!-- Svg Vector Icons : http://www.onlinewebfonts.com/icon -->
<!DOCTYPE svg PUBLIC "-//W3C//DTD SVG 1.1//EN" "http://www.w3.org/Graphics/SVG/1.1/DTD/svg11.dtd">
<svg version="1.1" xmlns="http://www.w3.org/2000/svg" xmlns:xlink="http://www.w3.org/1999/xlink" x="0px" y="0px" viewBox="0 0 1000 1000" enable-background="new 0 0 1000 1000" xml:space="preserve">
<metadata> Svg Vector Icons : http://www.onlinewebfonts.com/icon </metadata>
<g><g transform="translate(0.000000,512.000000) scale(0.100000,-0.100000)"><path d="M2588.5,973.6c-61.3-26.8-120.6-113-120.6-176.2c0-68.9,940.1-5397.4,961.2-5451.1c11.5-28.7,47.9-70.8,80.4-90c57.4-34.5,124.5-36.4,1485.8-36.4c1361.3,0,1428.3,1.9,1485.8,36.4c32.6,19.2,68.9,61.3,80.4,90c23,57.4,961.2,5376.4,961.2,5451.1c0,78.5-68.9,162.7-155.1,187.6l-80.4,24.9l-371.4-189.6l-371.4-189.6L6167,816.6c-206.8,103.4-390.6,187.6-405.9,185.7c-15.3,0-195.3-84.2-396.3-185.7l-369.5-187.6l-367.6,187.6c-202.9,103.4-382.9,187.6-398.2,187.6s-199.1-84.2-405.9-187.6l-377.2-185.7l-363.8,185.7c-201,101.5-379.1,185.7-398.3,185.7C2665.1,1000.4,2622.9,988.9,2588.5,973.6z M4325.1-1659.1c74.7-1164.1,143.6-2236.3,153.2-2383.8c9.6-147.4,19.2-279.5,19.2-291c0-19.1-57.4-24.9-227.8-24.9h-227.8l-11.5,53.6c-19.2,97.7-551.4,4466.9-545.7,4472.7c3.8,3.8,162.7,84.2,352.3,180c273.8,135.9,344.6,164.7,348.5,139.8C4189.1,470,4250.4-495,4325.1-1659.1z M6507.8,140.7c0-38.3-534.2-4401.8-545.7-4455.4c-9.6-42.1-17.2-44-241.2-44h-231.7l13.4,137.9c15.3,191.5,296.8,4622,296.8,4689v55.5l354.2-176.2C6377.6,234.5,6507.8,159.8,6507.8,140.7z" fill='#8E959C'/></g></g>
</svg>