<?xml version="1.0" encoding="utf-8"?>
<!-- Svg Vector Icons : http://www.onlinewebfonts.com/icon -->
<!DOCTYPE svg PUBLIC "-//W3C//DTD SVG 1.1//EN" "http://www.w3.org/Graphics/SVG/1.1/DTD/svg11.dtd">
<svg version="1.1" xmlns="http://www.w3.org/2000/svg" xmlns:xlink="http://www.w3.org/1999/xlink" x="0px" y="0px" viewBox="0 0 1000 1000" enable-background="new 0 0 1000 1000" xml:space="preserve">
<metadata> Svg Vector Icons : http://www.onlinewebfonts.com/icon </metadata>
<g><g transform="translate(0.000000,512.000000) scale(0.100000,-0.100000)"><path d="M5496.9,4998.2c-95.7-30.6-225.9-155.1-262.3-252.7c-32.6-82.3-32.6-239.3-1.9-344.6c9.6-28.7-5.8-49.8-67-91.9c-201-137.9-191.5-442.3,17.2-572.5c97.7-59.3,254.6-59.3,354.2,0c67,44,70.8,49.8,70.8,151.3c0,93.8,7.7,113,65.1,170.4c49.8,49.8,80.4,65.1,134,65.1c84.2,0,88.1-26.8,11.5-67c-67-34.5-95.7-82.3-95.7-157c0-116.8,99.6-189.6,218.3-157c95.7,26.8,151.3,111,141.7,218.3l-5.7,84.2l70.8-9.6c95.7-15.3,229.8,49.8,285.3,137.9c32.5,55.5,40.2,88.1,32.5,181.9c-7.6,97.6-17.2,122.5-72.8,180c-70.8,72.8-180,113-252.7,95.7c-40.2-9.6-47.9-1.9-68.9,76.6c-30.6,113-172.3,258.5-283.4,292.9C5694.1,5026.9,5584.9,5026.9,5496.9,4998.2z" fill='#76E1EF'/><path d="M3695.2,4818.2c-34.5-17.2-88.1-65.1-116.8-105.3c-44-59.3-57.4-67-74.7-45.9c-11.5,15.3-67,45.9-120.6,68.9c-360,155.1-708.4-250.8-503.5-585.9c36.4-57.4,90-111,137.9-137.8l78.5-44L3048,3882c-67-120.6-57.4-294.9,21.1-400.2c93.8-120.6,241.3-181.9,373.4-153.2c78.5,17.2,187.6,130.2,212.5,220.2c40.2,153.2-51.7,315.9-204.9,363.8c-151.3,47.9-122.5,101.5,46,90c130.2-9.6,237.4-78.5,291-189.6c44-91.9,53.6-241.2,19.1-304.4c-17.2-32.5-9.6-42.1,70.8-76.6c111-49.8,304.4-44,419.3,11.5c222.1,107.2,329.3,373.4,254.6,629.9c-34.5,118.7-208.7,285.3-331.2,317.8l-95.7,23l5.7,109.1c7.7,118.7-32.5,201-134,275.7C3924.9,4850.8,3777.5,4860.4,3695.2,4818.2z" fill='#76E1EF'/><path d="M6507.8,3679c-120.6-61.3-176.2-162.7-166.6-306.3c5.7-88.1,17.2-124.5,65.1-183.8l61.3-74.7l-74.7-23c-90-26.8-185.7-130.2-202.9-222.1c-17.2-99.6-3.8-116.8,107.2-130.2c224-26.8,444.2-187.6,562.9-413.6c63.2-118.7,78.5-135.9,137.8-147.4c181.9-34.5,379.1,53.6,476.8,210.6c49.8,82.3,57.4,113,57.4,229.8c0,113-7.7,151.3-53.6,225.9c-28.7,49.8-76.6,107.2-107.2,128.3l-55.5,40.2l36.4,70.8c46,90,46,189.6,0,273.8c-42.1,80.4-141.7,153.2-210.6,153.2c-114.9,0-231.7-128.3-231.7-254.6c0-23,17.2-76.6,38.3-118.7c46-90,47.9-105.3,7.7-105.3c-88.1,0-199.1,157-199.1,283.4c1.9,72.8,63.2,203,114.9,239.3c57.4,40.2,40.2,76.6-61.3,126.4C6701.2,3732.6,6613.1,3732.6,6507.8,3679z" fill='#76E1EF'/><path d="M4981.8,3422.4c-99.6-36.4-225.9-170.4-256.6-273.8c-21.1-72.8-28.7-78.5-93.8-78.5c-97.7,0-227.8-72.8-271.9-153.2c-46-84.2-38.3-237.4,15.3-312.1c53.6-74.7,185.7-135.9,270-122.5c63.2,11.5,67,9.6,57.4-38.3c-24.9-130.2,76.6-254.6,208.7-254.6c80.4,0,149.3,74.7,149.3,166.6c0,55.5-13.4,80.4-70.8,130.2c-84.3,72.8-88.1,86.2-23,86.2c128.3,0,235.5-132.1,210.6-260.4c-5.7-36.4-9.6-65.1-5.7-65.1c3.8,0,47.9,21.1,99.6,47.9c51.7,24.9,122.5,51.7,157,59.4c38.3,7.7,74.7,30.6,95.7,63.2c17.2,26.8,70.8,86.2,116.8,130.2l84.2,80.4l-70.8,76.6c-38.3,44-82.3,78.5-97.7,78.5c-23,0-26.8,13.4-17.2,53.6c38.3,149.3,34.5,270-7.7,356.1C5429.8,3405.2,5202,3499,4981.8,3422.4z" fill='#76E1EF'/><path d="M5973.6,2463.2c-113-40.2-260.4-187.6-291-291c-23-76.6-24.9-78.5-97.7-67c-143.6,23-308.3-78.5-350.4-220.2c-70.8-231.7,132.1-474.8,361.9-432.7c59.4,11.5,63.2,9.6,55.5-34.5c-9.6-46-5.7-46,88.1-36.4c78.5,7.7,111.1,0,181.9-42.1c111-65.1,134-63.2,118.7,3.8c-13.4,49.8-97.6,143.6-147.4,160.8c-13.4,3.8-17.2,17.2-7.7,32.5c9.6,17.2,40.2,23,91.9,15.3c109.1-15.3,187.6-97.7,201-214.5c7.7-80.4,17.2-93.8,72.8-116.8c208.7-88.1,448,76.6,448,306.4c0,122.5-15.3,132.1-124.5,76.6c-120.6-61.3-262.3-55.5-375.3,19.2c-70.8,47.9-151.3,170.4-151.3,231.7c0,44,17.2,36.4,97.6-45.9c128.3-128.3,304.4-139.8,436.6-30.6c149.3,128.3,137.8,361.9-30.6,547.6C6410.2,2482.3,6182.3,2536,5973.6,2463.2z" fill='#76E1EF'/><path d="M3597.5,2378.9c-67-26.8-149.3-109.1-193.4-193.4c-53.6-105.3-47.9-137.9,32.6-166.6c93.8-34.5,199.1-130.2,239.3-222.1c61.3-134,40.2-382.9-34.5-407.8c-17.2-3.8-24.9,17.2-24.9,67c0,264.2-174.2,446.1-425.1,446.1c-197.2-1.9-344.6-124.5-409.7-340.8c-55.5-180-67-166.6,323.6-361.9l350.4-174.2l352.3,180c235.5,120.6,373.4,180,415.5,180c36.4,0,130.2-34.5,220.2-78.5c172.3-86.2,174.2-86.2,204.9,59.4c57.4,273.8-155.1,538-438.5,541.8H4103l7.7,99.6c13.4,151.3-91.9,319.7-231.7,371.4C3812,2403.8,3662.6,2403.8,3597.5,2378.9z" fill='#76E1EF'/><path d="M2588.5,973.6c-61.3-26.8-120.6-113-120.6-176.2c0-68.9,940.1-5397.4,961.2-5451.1c11.5-28.7,47.9-70.8,80.4-90c57.4-34.5,124.5-36.4,1485.8-36.4c1361.3,0,1428.3,1.9,1485.8,36.4c32.6,19.2,68.9,61.3,80.4,90c23,57.4,961.2,5376.4,961.2,5451.1c0,78.5-68.9,162.7-155.1,187.6l-80.4,24.9l-371.4-189.6l-371.4-189.6L6167,816.6c-206.8,103.4-390.6,187.6-405.9,185.7c-15.3,0-195.3-84.2-396.3-185.7l-369.5-187.6l-367.6,187.6c-202.9,103.4-382.9,187.6-398.2,187.6s-199.1-84.2-405.9-187.6l-377.2-185.7l-363.8,185.7c-201,101.5-379.1,185.7-398.3,185.7C2665.1,1000.4,2622.9,988.9,2588.5,973.6z M4325.1-1659.1c74.7-1164.1,143.6-2236.3,153.2-2383.8c9.6-147.4,19.2-279.5,19.2-291c0-19.1-57.4-24.9-227.8-24.9h-227.8l-11.5,53.6c-19.2,97.7-551.4,4466.9-545.7,4472.7c3.8,3.8,162.7,84.2,352.3,180c273.8,135.9,344.6,164.7,348.5,139.8C4189.1,470,4250.4-495,4325.1-1659.1z M6507.8,140.7c0-38.3-534.2-4401.8-545.7-4455.4c-9.6-42.1-17.2-44-241.2-44h-231.7l13.4,137.9c15.3,191.5,296.8,4622,296.8,4689v55.5l354.2-176.2C6377.6,234.5,6507.8,159.8,6507.8,140.7z" fill='#76E1EF'/></g></g>
</svg>